HIERARCHY
ROOT Hips
{
	OFFSET 0.00000 0.00000 0.00000
	CHANNELS 6 Xposition Yposition Zposition Zrotation Yrotation Xrotation 
	JOINT LHipJoint
	{
		OFFSET 0 0 0
		CHANNELS 3 Zrotation Yrotation Xrotation
		JOINT LeftHip
		{
			OFFSET 1.41496 -1.84582 0.78394
			CHANNELS 3 Zrotation Yrotation Xrotation
			JOINT LeftKnee
			{
				OFFSET 2.58040 -7.08960 0.00000
				CHANNELS 3 Zrotation Yrotation Xrotation
				JOINT LeftAnkle
				{
					OFFSET 2.64719 -7.27309 0.00000
					CHANNELS 3 Zrotation Yrotation Xrotation
					JOINT LeftToe
					{
						OFFSET 0.20718 -0.56921 2.20259
						CHANNELS 3 Zrotation Yrotation Xrotation
						End Site
						{
							OFFSET 0.00000 -0.00000 1.14243
						}
					}
				}
			}
		}
	}
	JOINT RHipJoint
	{
		OFFSET 0 0 0
		CHANNELS 3 Zrotation Yrotation Xrotation
		JOINT RightHip
		{
			OFFSET -1.40551 -1.84582 0.78394
			CHANNELS 3 Zrotation Yrotation Xrotation
			JOINT RightKnee
			{
				OFFSET -2.56572 -7.04926 0.00000
				CHANNELS 3 Zrotation Yrotation Xrotation
				JOINT RightAnkle
				{
					OFFSET -2.57974 -7.08778 0.00000
					CHANNELS 3 Zrotation Yrotation Xrotation
					JOINT RightToe
					{
						OFFSET -0.26704 -0.73369 2.20815
						CHANNELS 3 Zrotation Yrotation Xrotation
						End Site
						{
							OFFSET -0.00000 -0.00000 1.16246
						}
					}
				}
			}
		}
	}
	JOINT lowerback
	{
		OFFSET 0 0 0
		CHANNELS 3 Zrotation Yrotation Xrotation
		JOINT Chest
		{
			OFFSET -0.04690 2.05196 -0.07017
			CHANNELS 3 Zrotation Yrotation Xrotation
			JOINT Chest2
			{
				OFFSET 0.04085 2.05260 0.00800
				CHANNELS 3 Zrotation Yrotation Xrotation
				JOINT lowerneck
				{
					OFFSET 0 0 0
					CHANNELS 3 Zrotation Yrotation Xrotation
					JOINT Neck
					{
						OFFSET -0.03582 1.80995 0.19301
						CHANNELS 3 Zrotation Yrotation Xrotation
						JOINT Head
						{
							OFFSET 0.00952 1.80195 -0.36389
							CHANNELS 3 Zrotation Yrotation Xrotation
							End Site
							{
								OFFSET 0.00392 1.85062 -0.14494
							}
						}
					}
				}
				JOINT LeftCollar
				{
					OFFSET 0 0 0
					CHANNELS 3 Zrotation Yrotation Xrotation
					JOINT LeftShoulder
					{
						OFFSET 3.55224 1.39726 -0.13667
CHANNELS 3 Zrotation Xrotation Yrotation
						JOINT LeftElbow
						{
OFFSET 0 -5.145070 -0.000000
CHANNELS 3 Zrotation Xrotation Yrotation
							JOINT LeftWrist
							{
OFFSET 0 -3.506460 0.000000
CHANNELS 3 Zrotation Xrotation Yrotation
								JOINT lhand
								{
									OFFSET 0 0 0
CHANNELS 3 Zrotation Xrotation Yrotation
									JOINT LFingers
									{
OFFSET 0 -0.629970 0.000000
CHANNELS 3 Zrotation Xrotation Yrotation
										End Site
										{
OFFSET 0 -0.507900 0.000000
										}
									}
								}
								JOINT LThumb
								{
OFFSET 0 0.000000 0.000000
CHANNELS 3 Zrotation Xrotation Yrotation
									End Site
									{
OFFSET 0 -0.515650 0.515650
									}
								}
							}
						}
					}
				}
				JOINT RightCollar
				{
					OFFSET 0 0 0
					CHANNELS 3 Zrotation Yrotation Xrotation
					JOINT RightShoulder
					{
						OFFSET -3.06467 1.61290 -0.28813
CHANNELS 3 Zrotation Xrotation Yrotation
						JOINT RightElbow
						{
OFFSET 0 -5.232000 -0.000000
CHANNELS 3 Zrotation Xrotation Yrotation
							JOINT RightWrist
							{
OFFSET 0 -3.656410 0.000000
CHANNELS 3 Zrotation Xrotation Yrotation
								JOINT rhand
								{
									OFFSET 0 0 0
CHANNELS 3 Zrotation Xrotation Yrotation
									JOINT RFingers
									{
OFFSET 0 -0.656810 0.000000
CHANNELS 3 Zrotation Xrotation Yrotation
										End Site
										{
OFFSET 0 -0.529530 0.000000
										}
									}
								}
								JOINT RThumb
								{
OFFSET 0 0.000000 0.000000
CHANNELS 3 Zrotation Xrotation Yrotation
									End Site
									{
OFFSET 0 -0.537620 0.537620
									}
								}
							}
						}
					}
				}
			}
		}
	}
}
MOTION
Frames: 6
Frame Time: 0.008333333333333333
1.831108 17.998701 -4.511341 -1.919200 0.351496 -9.788539 0.000000 0.000000 0.000000 8.306487 -14.484721 -99.947156 27.181635 18.715551 111.439552 -1.261576 -20.250123 13.938101 0.120554 -2.238679 -6.165823 0.000000 0.000000 0.000000 26.888177 -6.281324 3.354146 -1.413747 -7.520028 21.265295 -0.425546 5.146521 -11.636118 -1.306734 -7.241417 20.432493 5.455885 3.277727 14.939597 1.772239 5.430596 0.355152 -2.316462 2.466009 -7.664108 -5.161437 -4.602164 -13.691929 1.154310 -5.480896 23.400717 0.579898 -2.856312 9.867186 0.000000 0.000000 0.000000 24.632154 14.054541 12.420650 49.329782 -52.721610 25.639894 20.455514 4.644932 -3.656929 0.000000 0.000000 0.000000 -7.125000 0.000000 0.000000 -5.056769 33.849855 -1.387506 0.000000 0.000000 0.000000 -29.337697 10.980913 8.447775 -30.929139 -41.676527 -12.022712 -11.684055 5.727002 9.326045 0.000000 0.000000 0.000000 7.125000 0.000000 0.000000 13.211292 39.166472 1.938581
1.866158 17.969252 -4.529753 -2.226126 -0.507086 -9.206468 0.000000 0.000000 0.000000 7.545597 -16.431347 -98.214244 27.681451 18.522019 113.005245 -1.343025 -21.268939 15.948835 0.090970 -1.944726 -5.353101 0.000000 0.000000 0.000000 27.194111 -5.909778 2.359501 -1.510741 -7.762341 21.994661 -0.434034 5.900385 -11.817863 -1.366906 -7.399471 20.904369 6.440943 3.594012 14.906097 1.932818 6.056205 -0.095532 -2.828918 2.711286 -8.009347 -5.200362 -4.668340 -13.525326 0.874173 -5.506753 23.793954 0.485692 -2.905296 9.970837 0.000000 0.000000 0.000000 23.927386 15.422400 14.222777 48.647235 -52.435121 25.097829 20.048534 4.412705 -3.625726 0.000000 0.000000 0.000000 -7.125000 0.000000 0.000000 -5.386388 33.802273 -1.484840 0.000000 0.000000 0.000000 -29.468502 10.508028 8.887104 -31.559556 -42.193176 -12.444045 -12.306009 5.582596 8.897313 0.000000 0.000000 0.000000 7.125000 0.000000 0.000000 12.593515 38.787200 1.964129
1.884834 17.941712 -4.549501 -2.411407 -0.962298 -8.415913 0.000000 0.000000 0.000000 6.698702 -18.193109 -95.605602 28.103043 18.346640 114.338234 -1.354245 -21.842450 17.632280 0.043563 -1.344711 -3.697995 0.000000 0.000000 0.000000 27.290608 -5.821172 0.832803 -1.655388 -8.107895 23.042428 -0.435574 6.958882 -11.995094 -1.416784 -7.527700 21.288585 7.128267 3.777593 14.572269 1.993344 6.424109 -0.553125 -3.205752 2.843220 -8.223511 -5.138480 -4.691152 -13.503758 0.589010 -5.485353 24.165326 0.375411 -2.923441 10.089337 0.000000 0.000000 0.000000 23.249586 16.381842 15.907860 48.170058 -52.230223 24.720139 19.966603 4.360592 -3.887777 0.000000 0.000000 0.000000 -7.125000 0.000000 0.000000 -5.476159 34.076645 -1.473215 0.000000 0.000000 0.000000 -29.476413 10.338697 9.009284 -32.212409 -42.715825 -12.884753 -13.129240 5.496686 8.550007 0.000000 0.000000 0.000000 7.125000 0.000000 0.000000 11.827478 38.499986 1.925353
1.885755 17.918776 -4.562689 -2.507526 -1.099624 -7.485240 0.000000 0.000000 0.000000 5.795285 -19.483299 -92.191941 28.443341 18.196836 115.423572 -1.316730 -21.838518 18.242726 0.018221 -0.870614 -2.392879 0.000000 0.000000 0.000000 27.264119 -5.942712 -0.998651 -1.827189 -8.496280 24.231997 -0.425833 8.157097 -12.135020 -1.444268 -7.597403 21.497809 7.498458 3.849769 13.874860 2.017168 6.546424 -0.949167 -3.363103 2.880856 -8.212439 -5.030271 -4.647751 -13.585696 0.342898 -5.383814 24.402633 0.280117 -2.895408 10.176871 0.000000 0.000000 0.000000 22.508651 16.890698 17.368107 47.988930 -52.151487 24.576942 20.262437 4.301470 -4.403036 0.000000 0.000000 0.000000 -7.125000 0.000000 0.000000 -5.279782 34.634251 -1.348379 0.000000 0.000000 0.000000 -29.410306 10.453636 8.835682 -32.797456 -43.173670 -13.283278 -14.192806 5.485034 8.276573 0.000000 0.000000 0.000000 7.125000 0.000000 0.000000 10.876824 38.300322 1.820159
1.864069 17.902728 -4.567186 -2.478306 -0.941089 -6.546210 0.000000 0.000000 0.000000 4.801259 -20.119515 -87.970247 28.659383 18.097737 116.117266 -1.251822 -21.235432 17.532331 0.016858 -0.837897 -2.302846 0.000000 0.000000 0.000000 27.159818 -6.174106 -2.789911 -1.991312 -8.847797 25.320366 -0.416385 9.209946 -12.314860 -1.455815 -7.626188 21.584364 7.439778 3.807706 12.958764 2.031200 6.416809 -1.268553 -3.227479 2.824935 -8.060215 -4.917976 -4.530860 -13.744429 0.205394 -5.202812 24.519864 0.232027 -2.817492 10.236747 0.000000 0.000000 0.000000 21.755357 16.974223 18.462915 48.087016 -52.194236 24.654470 20.699076 4.083450 -4.951826 0.000000 0.000000 0.000000 -7.125000 0.000000 0.000000 -4.969619 35.236245 -1.195689 0.000000 0.000000 0.000000 -29.284358 10.863017 8.426317 -33.216356 -43.495606 -13.570761 -15.409385 5.505745 8.039739 0.000000 0.000000 0.000000 7.125000 0.000000 0.000000 9.806356 38.144474 1.674531
1.817239 17.895288 -4.563937 -2.278105 -0.380262 -5.609892 0.000000 0.000000 0.000000 3.786158 -20.187899 -83.164783 28.683793 18.086383 116.195897 -1.160021 -20.175416 15.938922 0.028255 -1.084065 -2.980098 0.000000 0.000000 0.000000 26.997532 -6.384587 -4.396307 -2.120841 -9.113243 26.150365 -0.423862 9.857861 -12.603921 -1.476806 -7.678733 21.742459 6.919588 3.612519 11.911713 1.988790 5.999752 -1.587835 -2.843619 2.650269 -7.895653 -4.775704 -4.354942 -13.904180 0.212156 -4.984483 24.614685 0.235109 -2.703134 10.290806 0.000000 0.000000 0.000000 21.213743 16.759371 18.966995 48.382723 -52.322012 24.888355 20.977351 3.839156 -5.322681 0.000000 0.000000 0.000000 -7.125000 0.000000 0.000000 -4.773138 35.644316 -1.100518 0.000000 0.000000 0.000000 -29.010505 11.651621 7.794996 -33.414147 -43.645989 -13.707087 -16.457415 5.533867 7.865080 0.000000 0.000000 0.000000 7.125000 0.000000 0.000000 8.890561 38.037490 1.538647
